<svg height="256" viewBox="0 0 256 256" width="256" xmlns="http://www.w3.org/2000/svg">
  <circle cx="128" cy="128" fill="#275c7c" r="128" />
  <path d="m154.57667 192.77086c-.40498-.48217-1.87632-3.03153-4.52854-7.84654-.60549-1.09924-1.28103-1.99863-1.50118-1.99863-.22016 0-1.28984.20629-2.37707.45844-1.08722.25214-2.66109.4187-3.49749.37012l-1.52072-.0883-.0897-5.53542-.0897-5.53542 1.12606-.16766c8.78082-1.30736 13.92389-3.18097 20.13795-7.33623 9.78692-6.54437 16.40825-16.57267 18.80488-28.48085.55152-2.74031.65504-4.1828.6286-8.75838-.0363-6.27605-.4692-8.86693-2.50422-14.98654-4.02423-12.10144-14.61764-22.517834-27.20635-26.751714-3.14914-1.05913-7.60425-2.083851-9.05982-2.083851-1.95995 0-1.8957.201781-1.8957-5.953585v-5.594131l1.85059.01289c1.01783.0071 2.45019.14137 3.18302.298397 3.53399.757231 3.05211.966122 4.56396-1.978464 3.64314-7.095637 4.30378-8.103974 5.30956-8.103974.72584 0 11.57894 4.330397 14.7024 5.866267 2.0919 1.02863 2.22586 1.153233 2.30937 2.148016.0704.838623-1.46221 6.54122-2.77 10.306651-.0778.223942.29384.781205.82582 1.238362 6.88595 5.917467 7.03977 6.027168 7.47154 5.328561.35214-.569781 8.595-4.753376 9.36549-4.753376 1.23804 0 2.02737 1.027145 7.73638 10.06724 1.38841 2.198508 2.75974 4.460208 3.04741 5.025995l.52302 1.02871-1.59644 1.441596c-.87804.79287-2.96218 2.50388-4.63142 3.80224-1.66924 1.29837-3.03497 2.52857-3.03497 2.73378s.31917 1.29573.70929 2.42338c.39011 1.12764.93595 3.04958 1.21298 4.27098.27703 1.22139.54597 2.36826.59764 2.54859.0552.19241 1.66445.47744 3.89466.68982 5.5616.52961 7.49053.82497 7.96627 1.21981.63493.52695.62895 18.68597-.007 19.32128-.437.43702-3.65078.9073-9.02945 1.32131l-2.7976.21534-.62574 2.66485c-.34416 1.46568-.91733 3.436-1.27371 4.37851-.96322 2.54735-.89155 2.84302 1.05457 4.35036 3.08529 2.38965 7.11284 5.91711 7.29349 6.38787.18158.4732-.55734 2.06658-1.57172 3.38922-.31224.40713-1.9439 2.87214-3.6259 5.47781-4.50321 6.97613-4.9485 7.55038-5.85481 7.55038-.4244 0-2.16728-.73323-3.87307-1.62941-1.70579-.89617-3.90822-2.04451-4.89427-2.55187l-1.79283-.92246-1.90836 1.83087c-1.0496 1.00699-2.74114 2.38346-3.75897 3.05882s-1.85059 1.38365-1.85059 1.57395c0 .19031.48075 1.66104 1.06834 3.26828 1.32553 3.62576 2.18871 6.5598 2.18871 7.43966 0 .36853-.24986.88399-.55524 1.14547-1.11014.95053-15.47035 6.92114-16.64642 6.92116-.42261.00001-.96422-.23316-1.20359-.51815zm-32.079-8.46641c-2.53673-.65066-4.56689-2.24362-6.09685-4.78386l-.71334-1.18438-.14805-23.09544-.14805-23.09543h-5.92191-5.9219l-.14805 15.24891c-.14781 15.22488-.14914 15.25133-.84458 16.78913-.84198 1.86185-3.316034 4.28869-5.287326 5.18644-1.12865.514-1.993337.64905-4.231426.66086-2.479978.0131-3.027047-.0841-4.62217-.82129-2.173594-1.00452-4.278542-3.05958-5.209201-5.08575-.677421-1.47483-.680357-1.53896-.768831-16.80341l-.0888-15.32293-5.685054.005c-3.126769.002-5.841416.10399-6.032527.22556-.242025.15394-.376814 2.0621-.444144 6.28748l-.09666 6.06648-.944933 1.36052c-1.150848 1.657-2.653286 3.00724-4.318991 3.88145-1.021235.53598-1.738161.65628-3.915029.65694-3.296893.00069-4.82449-.61754-7.069467-2.86252-2.619777-2.61977-2.553629-2.10764-2.553629-19.77123v-15.29721l.896194-1.79344c1.245821-2.49312 3.001294-4.03125 5.471684-4.79428 2.321237-.71696 3.567404-.7595 5.690527-.19427 2.718554.72375 4.958808 2.57895 6.308171 5.22391.571937 1.1211.631086 1.7606.679041 7.34171l.05252 6.11364 5.995931.0801 5.99593.0802v-14.60535c0-14.086446.02226-14.671217.626006-16.459073 1.644566-4.869815 7.235467-7.97103 12.116098-6.72067 1.019561.261198 2.617826.939063 3.551713 1.506367 1.792573 1.088928 2.710903 2.10597 3.871973 4.288173l.70893 1.332429.0842 15.329024.0842 15.32903 5.98578-.0801 5.98577-.0801.14805-22.94739c.13803-21.395451.18437-23.020369.68517-24.026587.9094-1.827196 2.50877-3.435705 4.28205-4.306488 1.47669-.725147 2.03803-.832309 4.35978-.832309 2.47126 0 2.80029.07343 4.52894 1.010751 1.94419 1.054188 3.0501 2.219177 4.24049 4.467013l.70562 1.332427.0709 47.671343c.0461 31.03829-.0339 48.37861-.22916 49.69841-.37509 2.53433-.85421 3.46551-2.76756 5.37885-2.29248 2.2925-5.74366 3.22575-8.91794 2.41156zm18.70552-20.228c-.10737-.10738-.18926-5.57161-.18196-12.14273l.0132-11.94752 1.52311-.77181c2.27164-1.15113 4.73647-3.6516 5.73906-5.82202.77244-1.67219.84959-2.13502.84959-5.09627 0-3.0685-.0553-3.36998-.9547-5.20805-1.13125-2.31181-3.18624-4.35238-5.55124-5.51228l-1.65925-.81377.14143-12.43684c.0964-8.480751.24257-12.470558.45942-12.542842 1.06848-.356157 8.72446 1.773023 11.63266 3.235121 12.92442 6.497751 20.38778 18.649741 20.34774 33.130621-.0156 5.63418-1.24341 11.02357-3.68748 16.18575-2.44304 5.16003-5.97356 9.4909-10.52162 12.90684-4.2016 3.15572-8.2002 5.03765-13.35931 6.28755-3.10071.75121-4.43505.90391-4.7907.54825z" fill="#fff" stroke-width=".296095" />
</svg>
